<svg xmlns="http://www.w3.org/2000/svg" width="333.559" height="154.833" viewBox="0 0 333.559 154.833">
  <g id="グループ_1" data-name="グループ 1" transform="translate(-130.858 -130.792)">
    <path id="パス_1" data-name="パス 1" d="M138.643,158.473q-1.745-13.829-2.594-27.681,12.1,7.786,16.434,24.221,2.594,12.975,8.65,17.3a20.2,20.2,0,0,0,6.919,4.325q10.382-8.639,14.706-12.975c4.028-3.462,6.054-6.624,6.054-9.515,0-1.731-.864-4.028-2.6-6.921q8.636-.851,18.166,6.055,7.785,6.063,7.784,10.381,0,5.19-9.515,8.65Q176.7,182.691,163.727,194.8q-15.567,12.126-15.569,25.95,0,10.381,20.76,19.9,17.294,8.655,17.3,19.028,0,5.193-6.919,11.246-6.936,6.933-13.84,14.7,6.042-16.42,6.054-22.488,0-5.193-22.488-14.706-18.168-7.785-18.166-18.165,0-23.354,26.815-44.115Q141.233,180.112,138.643,158.473Z"/>
    <path id="パス_2" data-name="パス 2" d="M234.18,276.36a8.175,8.175,0,0,0-1.117-4.837q-2.982-4.091-10.045-6.325-5.957-1.857-5.953-6.7a10.675,10.675,0,0,1,1.116-4.837,5.6,5.6,0,0,1,3.348-3.348q-.374,6.7,3.349,8.185,9.672,3.723,12.65,6.325a5.325,5.325,0,0,1,2.233,4.093,8.763,8.763,0,0,1-1.117,3.721,32.37,32.37,0,0,1-5.208,7.441A15.9,15.9,0,0,0,234.18,276.36Zm-7.07-76.273q5.581,0,8.558,2.6a10.225,10.225,0,0,1,2.6,4.837,12.3,12.3,0,0,1,.745,3.721,19.106,19.106,0,0,1,5.953-1.117,4.61,4.61,0,0,1,2.6.745c1.238.743,1.86,1.366,1.86,1.86q0,1.116-4.092,2.976a17.774,17.774,0,0,0-4.837,2.233,56.145,56.145,0,0,0,2.6,9.674,19.416,19.416,0,0,0,8.93-6.7q0,7.447-6.7,12.279a36.078,36.078,0,0,0,3.721,7.069q2.973,5.214,2.976,6.7c0,2.732-.5,4.092-1.488,4.092a8.127,8.127,0,0,1-4.465-1.86,25.449,25.449,0,0,0-13.4-4.464,34.441,34.441,0,0,0,8.558-.745,87.625,87.625,0,0,0-2.6-8.557,17.112,17.112,0,0,1-5.953,1.488q-8.928,0-8.929-4.837,0-2.6,4.465-8.185,1.482-1.857,2.976-3.721a27.746,27.746,0,0,1-12.65-1.488q10.046-3.348,13.767-4.837a33.492,33.492,0,0,0-7.814-13.394A10.842,10.842,0,0,0,227.11,200.087Zm7.07,21.207a17.308,17.308,0,0,0-8.558,9.3q0,1.491,3.721,1.488a17.212,17.212,0,0,0,3.348-.371,15.668,15.668,0,0,0,4.465-1.489Q235.665,225.393,234.18,221.294Z"/>
    <path id="パス_3" data-name="パス 3" d="M278.178,174.069a19.269,19.269,0,0,1,6.016,1.093q9.291,3.283,9.3,8.75,0,2.191-3.827,6.015-6.564,6.563-6.563,10.39,0,2.191,3.829,6.016,4.922,4.922,4.921,13.671a147.459,147.459,0,0,1-.547,14.765q-.551,5.472-.547,8.749,0,8.754,1.641,12.031,9.293,18.6,30.624,30.076a79.5,79.5,0,0,1-27.89-10.937q-15.867-9.843-15.858-23.514a166.6,166.6,0,0,1,.546-16.952,174.6,174.6,0,0,0,1.641-18.047,23.259,23.259,0,0,0-.547-5.468,25.722,25.722,0,0,1-1.094-7.108,36.572,36.572,0,0,1,.547-6.016,43.9,43.9,0,0,0,.547-7.108,16.774,16.774,0,0,0-.547-4.922q-1.639-5.46-8.2-10.391A16.117,16.117,0,0,1,278.178,174.069Z"/>
    <path id="パス_4" data-name="パス 4" d="M366.87,249.939q2.492-4.983,2.495-7.487c0-2.323-1.5-3.493-4.492-3.493q-5.5,0-14.475,4.492a12.063,12.063,0,0,1-3.994,1.5c-1,0-2.168-.663-3.493-2q-3.5-3.486-3.5-10.482,0-24.45,9.484-32.943,5.487-4.984,5.491-6.989a6.154,6.154,0,0,0-2.5-4.991q-4.492-3.99-4.492-8.485a20.888,20.888,0,0,1,1-4.992,63.116,63.116,0,0,0,11.48,9.983q5.487,3.5,5.491,6.489,0,3.5-6.988,5.491-9.488,2.5-9.485,12.978a40.094,40.094,0,0,1,.5,6.488,53.621,53.621,0,0,1-.5,7.487,64,64,0,0,0-.5,7.987c0,2.667,1,3.993,2.994,3.993q.492,0,5.99-1.5a38.213,38.213,0,0,1,9.983-1.5q8.481,0,11.979,3.992a9.962,9.962,0,0,1,2.5,6.489q0,2.5-2.995,6.49-4,4.993-13.476,12.978-3.5,2.994-11.98,9.983Q364.366,254.938,366.87,249.939Z"/>
    <path id="パス_5" data-name="パス 5" d="M423.67,211.69q3.357-5.454,5.881-5.461,1.672,0,4.621,4.2a43.121,43.121,0,0,0,8.4,9.241,23.394,23.394,0,0,1,6.3,1.681q5.454,2.521,5.46,5.461c0,1.4-1.122,2.1-3.36,2.1a32,32,0,0,1-8.4-.841q-3.369-.412-8.4-.84h-4.2q0,7.562.419,15.543.838,12.189.841,17.644a18.085,18.085,0,0,1-1.26,7.141,9.079,9.079,0,0,0-1.681,3.361q-4.2,12.6-18.483,14.7,10.5-7.139,11.342-18.9-10.929-6.3-10.922-11.763,0-6.714,5.881-12.182a71,71,0,0,1,5.461-5.04q.414-5.88.42-10.083a33.108,33.108,0,0,0-11.762,2.941q-7.984,3.78-10.922,5.041a13.082,13.082,0,0,1-5.461,1.68q-3.781,0-7.562-3.78c-1.962-1.956-3.084-3.362-3.36-4.2,2.8.282,5.041.419,6.721.419q1.26,0,12.6-2.94,9.657-2.1,19.743-3.78A33.4,33.4,0,0,1,423.67,211.69Zm-2.521,39.488c0-4.476-.42-6.722-1.261-6.722-.564,0-1.68,1.261-3.36,3.782-1.405,1.961-2.1,3.36-2.1,4.2a4.817,4.817,0,0,0,1.68,3.361,6.145,6.145,0,0,0,3.361,1.68Q421.143,257.479,421.149,251.178Zm9.241-41.588c-.564,0-.839,2.52-.839,7.561a19.737,19.737,0,0,0,.42,4.621q2.932-.413,5.881-.84Q431.225,209.589,430.39,209.59Zm14.284-3.361a11.736,11.736,0,0,1,9.241,3.781,7.633,7.633,0,0,1,2.521,5.461q0,2.52-3.36,2.52c-1.4,0-2.941-.978-4.622-2.941q-3.366-3.778-7.981-8.4A26.989,26.989,0,0,1,444.674,206.229Zm9.661-2.941a13.624,13.624,0,0,1,5.042.841q5.04,2.52,5.04,5.881a2.228,2.228,0,0,1-2.52,2.521c-1.4,0-2.94-.841-4.621-2.521q-8.408-6.3-7.562-5.881C450.555,203.57,452.091,203.288,454.335,203.288Z"/>
  </g>
</svg>
